<svg width="9" height="12" viewBox="0 0 9 12" fill="none" xmlns="http://www.w3.org/2000/svg">
<path d="M7.86988 5.48092L4.71199 8.63882C4.58962 8.76316 4.42778 8.82434 4.26594 8.82434C4.1041 8.82434 3.94265 8.76266 3.81949 8.63931L0.661595 5.48141C0.414885 5.2347 0.414885 4.83503 0.661595 4.58832C0.908306 4.34161 1.30798 4.34161 1.55469 4.58832L3.63436 6.66908V0.613816C3.63436 0.264671 3.91719 0 4.24817 0C4.57916 0 4.89752 0.264671 4.89752 0.613816V6.66908L6.97778 4.58882C7.22449 4.34211 7.62416 4.34211 7.87087 4.58882C8.11758 4.83553 8.1166 5.23421 7.86988 5.48092Z" fill="#1A1A1A"/>
<rect y="9.77148" width="9" height="1.42105" rx="0.710526" fill="#1A1A1A"/>
</svg>
