<svg width="12" height="12" viewBox="0 0 12 12" fill="none" xmlns="http://www.w3.org/2000/svg">
<circle cx="6" cy="6" r="6" fill="white"/>
<path d="M8.10203 3.90341C8.07119 3.87251 8.03456 3.84799 7.99423 3.83126C7.95391 3.81454 7.91068 3.80593 7.86703 3.80593C7.82337 3.80593 7.78014 3.81454 7.73982 3.83126C7.69949 3.84799 7.66286 3.87251 7.63203 3.90341L6.00203 5.53007L4.37203 3.90007C4.34117 3.86921 4.30453 3.84473 4.26421 3.82803C4.22389 3.81133 4.18067 3.80273 4.13703 3.80273C4.09338 3.80273 4.05017 3.81133 4.00985 3.82803C3.96953 3.84473 3.93289 3.86921 3.90203 3.90007C3.87117 3.93094 3.84669 3.96757 3.82999 4.00789C3.81328 4.04821 3.80469 4.09143 3.80469 4.13507C3.80469 4.17872 3.81328 4.22193 3.82999 4.26226C3.84669 4.30258 3.87117 4.33921 3.90203 4.37007L5.53203 6.00007L3.90203 7.63007C3.87117 7.66093 3.84669 7.69757 3.82999 7.73789C3.81328 7.77821 3.80469 7.82143 3.80469 7.86507C3.80469 7.90872 3.81328 7.95193 3.82999 7.99225C3.84669 8.03258 3.87117 8.06921 3.90203 8.10007C3.93289 8.13093 3.96953 8.15541 4.00985 8.17212C4.05017 8.18882 4.09338 8.19741 4.13703 8.19741C4.18067 8.19741 4.22389 8.18882 4.26421 8.17212C4.30453 8.15541 4.34117 8.13093 4.37203 8.10007L6.00203 6.47007L7.63203 8.10007C7.66289 8.13093 7.69952 8.15541 7.73985 8.17212C7.78017 8.18882 7.82338 8.19741 7.86703 8.19741C7.91067 8.19741 7.95389 8.18882 7.99421 8.17212C8.03453 8.15541 8.07117 8.13093 8.10203 8.10007C8.13289 8.06921 8.15737 8.03258 8.17407 7.99225C8.19077 7.95193 8.19937 7.90872 8.19937 7.86507C8.19937 7.82143 8.19077 7.77821 8.17407 7.73789C8.15737 7.69757 8.13289 7.66093 8.10203 7.63007L6.47203 6.00007L8.10203 4.37007C8.22869 4.24341 8.22869 4.03007 8.10203 3.90341Z" fill="#FF6174"/>
</svg>
